<?xml version="1.0" standalone="no"?>
<!DOCTYPE svg PUBLIC "-//W3C//DTD SVG 20010904//EN"
 "http://www.w3.org/TR/2001/REC-SVG-20010904/DTD/svg10.dtd">
<svg version="1.0" xmlns="http://www.w3.org/2000/svg"
 width="140.000000pt" height="96.000000pt" viewBox="0 0 140.000000 96.000000"
 preserveAspectRatio="xMidYMid meet">

<g transform="translate(0.000000,96.000000) scale(0.100000,-0.100000)"
fill="#000000" stroke="none">
<path d="M610 861 l0 -69 -44 5 c-35 4 -48 1 -65 -16 -11 -11 -21 -30 -21 -41
0 -16 -7 -20 -30 -20 -26 0 -30 -4 -30 -28 0 -26 3 -29 32 -27 27 2 44 -8 95
-54 l63 -56 0 -152 0 -153 30 0 30 0 0 148 0 148 67 60 c51 44 75 59 98 59 25
0 30 4 33 28 3 23 0 27 -22 27 -17 0 -26 6 -26 15 0 9 -11 27 -25 41 -21 21
-33 25 -73 23 l-47 -3 -3 67 c-3 67 -3 67 -32 67 l-30 0 0 -69z"/>
<path d="M77 213 c-11 -10 -8 -71 3 -78 6 -4 10 12 10 39 0 47 -2 51 -13 39z"/>
<path d="M177 213 c-11 -10 -8 -71 3 -78 6 -4 10 12 10 39 0 47 -2 51 -13 39z"/>
<path d="M210 215 c0 -12 45 -85 52 -85 9 0 51 80 46 86 -2 2 -12 -12 -23 -31
-22 -43 -29 -43 -45 -5 -12 28 -30 49 -30 35z"/>
<path d="M343 175 c0 -27 2 -38 4 -22 2 15 2 37 0 50 -2 12 -4 0 -4 -28z"/>
<path d="M387 214 c-12 -12 -9 -86 4 -78 6 3 9 17 6 30 -6 32 3 30 38 -6 15
-16 32 -27 37 -24 11 7 10 74 -2 74 -5 0 -10 -13 -10 -30 l0 -30 -33 36 c-18
19 -36 32 -40 28z"/>
<path d="M522 204 c-12 -8 -22 -21 -22 -28 0 -19 34 -46 56 -45 14 1 13 3 -6
8 -17 5 -26 15 -28 34 -3 21 2 28 24 33 15 4 35 2 46 -5 10 -6 18 -7 18 -2 0
24 -57 27 -88 5z"/>
<path d="M685 200 c25 -82 33 -87 56 -32 l16 37 16 -37 c9 -21 18 -38 21 -38
7 0 36 69 35 84 0 6 -8 -7 -18 -28 l-17 -39 -13 31 c-20 47 -29 48 -48 5 l-16
-38 -11 32 c-13 38 -32 59 -21 23z"/>
<path d="M860 179 c-12 -23 -19 -43 -17 -45 2 -3 12 11 21 31 17 35 36 47 36
21 0 -14 39 -67 40 -53 0 9 -49 87 -55 87 -2 0 -14 -18 -25 -41z"/>
<path d="M958 213 c18 -4 22 -11 23 -46 l2 -42 6 39 c4 26 13 42 26 47 13 5 4
7 -30 7 -27 0 -40 -3 -27 -5z"/>
<path d="M1059 213 c-4 -42 -3 -76 3 -80 5 -2 8 5 8 16 0 15 8 21 33 24 l32 4
-32 1 c-48 3 -44 30 5 35 l37 4 -42 1 c-24 1 -43 -1 -44 -5z"/>
<path d="M1171 173 c1 -27 4 -38 6 -25 5 28 34 29 58 2 10 -11 23 -20 28 -20
6 0 3 8 -6 18 -12 14 -14 21 -6 29 22 22 2 43 -41 43 l-40 0 1 -47z m77 20 c2
-9 -8 -13 -32 -13 -26 0 -36 4 -36 16 0 19 61 16 68 -3z"/>
<path d="M596 159 c3 -6 0 -16 -7 -21 -12 -8 -11 -9 1 -5 18 4 27 37 10 37 -6
0 -8 -5 -4 -11z"/>
<path d="M1022 60 c0 -14 2 -19 5 -12 2 6 2 18 0 25 -3 6 -5 1 -5 -13z"/>
</g>
</svg>
